<svg version="1.2" xmlns="http://www.w3.org/2000/svg" viewBox="0 0 550 680" width="550" height="680">
	<title>New Project</title>
	<style>
		.s0 { fill: #c8c8cc } 
		.s1 { fill: #adafb2 } 
	</style>
	<path id="&lt;Path&gt;" class="s0" d="m266 643l-234 1q-2-70 24-107 27.1-38.6 90-64 25.1 29.8 46 42c29 17 51.5 29 83 29 37 0 67-17 93-38q31.5-25.4 31-32 60.4 27.7 84 60 27 37 33 109z"/>
	<path id="&lt;Path&gt;" class="s1" d="m427 159c23 39 27.7 158.9 10 204-18 46-27 73-56 102-26.2 26.2-75 62-106 62-28 0-80.9-29.9-106-54-25-24-50-71-65-108-15-37-27.2-124-1-193 19-50 89-93 151-92 123 2 156.5 51 173 79z"/>
</svg>